<?xml version="1.0" encoding="utf-8"?>
<!-- Generator: Adobe Illustrator 12.0.0, SVG Export Plug-In . SVG Version: 6.00 Build 51448)  -->
<!DOCTYPE svg PUBLIC "-//W3C//DTD SVG 1.1//EN" "http://www.w3.org/Graphics/SVG/1.1/DTD/svg11.dtd" [
	<!ENTITY ns_svg "http://www.w3.org/2000/svg">
	<!ENTITY ns_xlink "http://www.w3.org/1999/xlink">
]>
<svg  version="1.1" xmlns="&ns_svg;" xmlns:xlink="&ns_xlink;" width="401.167" height="235.25" viewBox="0 0 401.167 235.25"
	 overflow="visible" enable-background="new 0 0 401.167 235.25" xml:space="preserve">
<g id="Ebene_1">
	<rect x="0.5" y="0.75" fill="#F8F8F8" stroke="#000000" width="193.5" height="234"/>
	<rect x="0.5" y="0.5" fill="#323232" stroke="#000000" width="193.5" height="32.75"/>
	<rect x="0.5" y="207.417" fill="#323232" stroke="#000000" width="193.5" height="27.333"/>
	<rect x="0.5" y="33.5" fill="#D2D2D2" stroke="#000000" width="193.5" height="46.583"/>
	<rect x="7.333" y="100.833" fill="#D2D2D2" stroke="#000000" stroke-width="0.5" width="47.667" height="47.667"/>
	<rect x="7.333" y="153.078" fill="#D2D2D2" stroke="#000000" stroke-width="0.5" width="47.667" height="47.667"/>
	<rect x="72.333" y="100.833" fill="#D2D2D2" stroke="#000000" stroke-width="0.5" width="47.667" height="47.667"/>
	<rect x="72.333" y="153.078" fill="#D2D2D2" stroke="#000000" stroke-width="0.5" width="47.667" height="47.667"/>
	<rect x="138.333" y="100.833" fill="#D2D2D2" stroke="#000000" stroke-width="0.5" width="47.667" height="47.667"/>
	<rect x="138.333" y="153.078" fill="#D2D2D2" stroke="#000000" stroke-width="0.5" width="47.667" height="47.667"/>
	<text transform="matrix(1 0 0 1 9 23)" fill="#009EE0" font-family="'MyriadWebPro-Bold'" font-size="16">Logo</text>
	<text transform="matrix(1 0 0 1 7.5835 94.5)" fill="#009EE0" font-family="'MyriadWebPro-Bold'" font-size="14">Categories</text>
	<rect x="79.667" y="22.875" fill="#797A7C" stroke="#000000" width="28" height="10.625"/>
	<rect x="110.167" y="22.875" fill="#797A7C" stroke="#000000" width="44.417" height="10.625"/>
	<rect x="157.334" y="22.875" fill="#797A7C" stroke="#000000" width="30.707" height="10.625"/>
	<polygon fill="#009EE0" stroke="#000000" stroke-width="0.5" points="16,67.186 6.844,58.029 15.967,48.906 	"/>
	<polygon fill="#009EE0" stroke="#000000" stroke-width="0.5" points="178.844,48.906 188,58.063 178.877,67.186 	"/>
	<rect x="22.5" y="39.417" fill="#C2C3C4" width="48" height="36"/>
	<rect x="73.959" y="39.417" fill="#C2C3C4" width="48" height="36"/>
	<rect x="125.333" y="39.417" fill="#C2C3C4" width="48" height="36"/>
	<text transform="matrix(1 0 0 1 52.416 228.75)" fill="#F8F8F8" font-family="'MyriadWebPro-Bold'" font-size="6">Impressum | AGBs | Contact | FAQ</text>
	<text transform="matrix(1 0 0 1 8.75 215.75)" fill="#009EE0" font-family="'MyriadWebPro-Bold'" font-size="6">Footer</text>
	<rect x="126.875" y="3.75" fill="#797A7C" stroke="#000000" stroke-width="0.5" width="63.875" height="7.25"/>
	<text transform="matrix(1 0 0 1 169.875 9.125)" fill="#646567" font-family="'MyriadWebPro-Bold'" font-size="6">Search</text>
	
		<text transform="matrix(1 0 0 1 52.4595 30.5835)" fill="#009EE0" stroke="#000000" stroke-width="0.2" font-family="'MyriadWebPro-Bold'" font-size="8">Home     About     Categories     Search</text>
</g>
<g id="Ebene_1_Kopie">
	<rect x="207.167" y="0.75" fill="#F8F8F8" stroke="#000000" width="193.5" height="234"/>
	<rect x="207.167" y="0.75" fill="#323232" stroke="#000000" width="193.5" height="32.75"/>
	<rect x="207.167" y="207.417" fill="#323232" stroke="#000000" width="193.5" height="27.333"/>
	<rect x="214" y="61.167" fill="#D2D2D2" stroke="#000000" stroke-width="0.5" width="47.667" height="28.25"/>
	<rect x="266.25" y="103.078" fill="#D2D2D2" stroke="#000000" stroke-width="0.5" width="27.661" height="27.661"/>
	<rect x="241" y="169.828" fill="#D2D2D2" stroke="#000000" stroke-width="0.5" width="27.661" height="27.661"/>
	<rect x="273" y="176.078" fill="#D2D2D2" stroke="#000000" stroke-width="0.5" width="50.75" height="24.922"/>
	<rect x="296.65" y="103.078" fill="#D2D2D2" stroke="#000000" stroke-width="0.5" width="27.66" height="27.661"/>
	<rect x="265.875" y="61.167" fill="#D2D2D2" stroke="#000000" stroke-width="0.5" width="47.666" height="37.583"/>
	<rect x="276.375" y="133.667" fill="#D2D2D2" stroke="#000000" stroke-width="0.5" width="47.666" height="37.583"/>
	<rect x="213.75" y="93.578" fill="#D2D2D2" stroke="#000000" stroke-width="0.5" width="47.667" height="36.672"/>
	<rect x="317.333" y="61.209" fill="#D2D2D2" stroke="#000000" stroke-width="0.5" width="33.292" height="32.416"/>
	<rect x="238.583" y="134.209" fill="#D2D2D2" stroke="#000000" stroke-width="0.5" width="33.292" height="32.416"/>
	<rect x="353.5" y="61.203" fill="#D2D2D2" stroke="#000000" stroke-width="0.5" width="40.625" height="47.667"/>
	<rect x="213.5" y="134.453" fill="#D2D2D2" stroke="#000000" stroke-width="0.5" width="21.872" height="66.419"/>
	<rect x="327.75" y="112.453" fill="#D2D2D2" stroke="#000000" stroke-width="0.5" width="66.375" height="36.047"/>
	<rect x="327.75" y="151.453" fill="#D2D2D2" stroke="#000000" stroke-width="0.5" width="66.375" height="36.047"/>
	<text transform="matrix(1 0 0 1 215.667 23)" fill="#009EE0" font-family="'MyriadWebPro-Bold'" font-size="16">Logo</text>
	<text transform="matrix(1 0 0 1 211.584 51.5)" fill="#009EE0" font-family="'MyriadWebPro-Bold'" font-size="14">Categorie</text>
	<rect x="286.333" y="22.875" fill="#797A7C" stroke="#000000" width="28" height="10.625"/>
	<rect x="255.5" y="22.875" fill="#797A7C" stroke="#000000" width="28" height="10.625"/>
	<rect x="316.834" y="22.875" fill="#797A7C" stroke="#000000" width="44.416" height="10.625"/>
	<rect x="364.002" y="22.875" fill="#797A7C" stroke="#000000" width="30.707" height="10.625"/>
	<text transform="matrix(1 0 0 1 259.334 30.75)"><tspan x="0" y="0" fill="#009EE0" stroke="#000000" stroke-width="0.2" font-family="'MyriadWebPro-Bold'" font-size="8">Home     About     </tspan><tspan x="61.215" y="0" fill="#D5041C" stroke="#000000" stroke-width="0.2" font-family="'MyriadWebPro-Bold'" font-size="8">Categories</tspan><tspan x="100.605" y="0" fill="#009EE0" stroke="#000000" stroke-width="0.2" font-family="'MyriadWebPro-Bold'" font-size="8">     Search</tspan></text>
	<text transform="matrix(1 0 0 1 259.083 228.75)" fill="#F8F8F8" font-family="'MyriadWebPro-Bold'" font-size="6">Impressum | AGBs | Contact | FAQ</text>
	<text transform="matrix(1 0 0 1 215.417 215.75)" fill="#009EE0" font-family="'MyriadWebPro-Bold'" font-size="6">Footer</text>
	<rect x="49.167" y="22.542" fill="#797A7C" stroke="#000000" width="28" height="10.625"/>
	<rect x="333.542" y="3.75" fill="#797A7C" stroke="#000000" stroke-width="0.5" width="63.875" height="7.25"/>
	<text transform="matrix(1 0 0 1 376.542 9.125)" fill="#646567" font-family="'MyriadWebPro-Bold'" font-size="6">Search</text>
	
		<text transform="matrix(1 0 0 1 53.334 30.25)" fill="#D5041C" stroke="#000000" stroke-width="0.2" font-family="'MyriadWebPro-Bold'" font-size="7">Home</text>
</g>
<g id="Ebene_3">
	<polyline fill="#D5041C" stroke="#D5041C" points="47.708,144.993 50.035,144.993 50.035,146.377 52.753,144.935 50.029,143.438 
		50.035,144.993 	"/>
	<polyline fill="#D5041C" stroke="#D5041C" points="112.708,144.993 115.035,144.993 115.035,146.377 117.753,144.935 
		115.029,143.438 115.035,144.993 	"/>
	<polyline fill="#D5041C" stroke="#D5041C" points="178.833,144.993 181.16,144.993 181.16,146.377 183.878,144.935 
		181.154,143.438 181.16,144.993 	"/>
	<polyline fill="#D5041C" stroke="#D5041C" points="178.833,197.239 181.16,197.239 181.16,198.624 183.878,197.181 
		181.154,195.685 181.16,197.239 	"/>
	<polyline fill="#D5041C" stroke="#D5041C" points="112.278,197.239 114.604,197.239 114.604,198.624 117.323,197.181 
		114.599,195.685 114.604,197.239 	"/>
	<polyline fill="#D5041C" stroke="#D5041C" points="47.709,197.239 50.035,197.239 50.035,198.624 52.754,197.181 50.03,195.685 
		50.035,197.239 	"/>
</g>
</svg>
